<?xml version="1.0" encoding="utf-8"?>
<!-- Generator: Adobe Illustrator 27.2.0, SVG Export Plug-In . SVG Version: 6.00 Build 0)  -->
<svg version="1.1" id="Layer_1" xmlns="http://www.w3.org/2000/svg" xmlns:xlink="http://www.w3.org/1999/xlink" x="0px" y="0px"
	 viewBox="0 0 512 512" style="enable-background:new 0 0 512 512;" xml:space="preserve">
<style type="text/css">
	.st0{fill-rule:evenodd;clip-rule:evenodd;fill:#08F7B8;}
</style>
<g>
	<path class="st0" d="M120.28,218.17c20.19,0,36.61,16.52,36.61,36.83s-16.42,36.83-36.61,36.83c-20.18,0-36.61-16.52-36.61-36.83
		S100.1,218.17,120.28,218.17z M78.45,218.17c4.31,0,6.77,4.95,4.18,8.42c-6.15,8.24-9.41,18.06-9.41,28.41
		c0,21.24-17.97,38.34-39.42,36.72c-17.9-1.35-32.35-15.89-33.69-33.89c-1.61-21.58,15.39-39.66,36.5-39.66H78.45z M120.28,239.22
		c-8.65,0-15.69,7.08-15.69,15.78c0,8.7,7.04,15.78,15.69,15.78c8.65,0,15.7-7.08,15.7-15.78
		C135.98,246.3,128.94,239.22,120.28,239.22z M36.61,239.22c-8.65,0-15.69,7.08-15.69,15.78c0,8.7,7.04,15.78,15.69,15.78
		c8.65,0,15.69-7.08,15.69-15.78C52.3,246.3,45.26,239.22,36.61,239.22z M36.61,249.74c2.89,0,5.23,2.36,5.23,5.26
		c0,2.91-2.34,5.26-5.23,5.26c-2.88,0-5.23-2.36-5.23-5.26C31.38,252.1,33.72,249.74,36.61,249.74z M120.28,249.74
		c2.89,0,5.23,2.36,5.23,5.26c0,2.91-2.34,5.26-5.23,5.26c-2.88,0-5.23-2.36-5.23-5.26C115.06,252.1,117.4,249.74,120.28,249.74z"/>
	<path class="st0" d="M461.59,245.25v32.56c0,8.83-7.14,16.01-15.92,16.01c-8.55,0-15.55-6.82-15.9-15.34l-0.02-0.68h8.48
		c0,4.12,3.34,7.47,7.43,7.47c3.93,0,7.16-3.09,7.41-6.99l0.02-0.49v-2.39c-2.22,1.19-4.75,1.86-7.43,1.86
		c-8.78,0-15.91-7.18-15.91-16.01c0-8.83,7.14-16.01,15.91-16.01c2.38,0,4.65,0.53,6.68,1.48l0.75,0.38v-1.86H461.59z
		 M214.88,232.44v8.54h-14.86c-4.68,0-8.49,3.83-8.49,8.54v4.27h23.35v8.54h-23.35v14.95h-8.49v-27.76
		c0-9.42,7.62-17.08,16.98-17.08H214.88L214.88,232.44z M512,245.26v8.54h-8.49c-1.99,0-3.85,0.78-5.25,2.19
		c-1.4,1.41-2.18,3.29-2.18,5.28c0,1.99,0.78,3.87,2.18,5.29c1.4,1.41,3.27,2.19,5.25,2.19H512v8.54h-8.49
		c-4.25,0-8.25-1.67-11.26-4.69c-3.01-3.03-4.66-7.05-4.66-11.32c0-4.28,1.65-8.3,4.67-11.32c3-3.02,7-4.69,11.25-4.69H512
		L512,245.26z M255.2,245.26v32.02h-8.49v-1.86c-2.22,1.18-4.75,1.86-7.43,1.86c-8.78,0-15.92-7.18-15.92-16.01
		c0-8.83,7.14-16.01,15.92-16.01c2.38,0,4.65,0.53,6.68,1.48l0.75,0.38v-1.86L255.2,245.26L255.2,245.26z M419.68,245.26v32.02
		h-8.49v-1.86c-2.22,1.18-4.75,1.86-7.43,1.86c-8.78,0-15.92-7.18-15.92-16.01c0-8.83,7.14-16.01,15.91-16.01
		c2.38,0,4.65,0.53,6.68,1.48l0.75,0.38v-1.86L419.68,245.26L419.68,245.26z M366.62,245.26c6.81,0,12.39,5.4,12.72,12.17l0.02,0.64
		v19.21h-8.49v-19.21c0-2.35-1.9-4.27-4.25-4.27c-2.2,0-4.02,1.7-4.22,3.86l-0.02,0.41v19.21h-8.49v-19.21
		c0-2.35-1.9-4.27-4.24-4.27c-2.2,0-4.01,1.7-4.22,3.86l-0.02,0.41v19.21h-8.49v-19.21c0-7.07,5.71-12.81,12.74-12.81
		c3.26,0,6.24,1.24,8.49,3.27C360.39,246.5,363.36,245.26,366.62,245.26z M288.1,245.26v8.54h-8.49c-1.98,0-3.85,0.78-5.25,2.19
		c-1.4,1.41-2.17,3.29-2.17,5.28c0,1.99,0.77,3.87,2.17,5.29c1.26,1.27,2.9,2.03,4.66,2.17l0.59,0.02h8.49v8.54h-8.49
		c-4.25,0-8.25-1.67-11.25-4.69c-3.01-3.02-4.66-7.05-4.66-11.32s1.66-8.3,4.66-11.32c2.82-2.83,6.51-4.48,10.46-4.67l0.79-0.02
		H288.1z M480.16,245.25v32.03h-8.49v-32.03H480.16z M315.69,245.26c3.4,0,6.6,1.33,9,3.75c2.24,2.25,3.54,5.19,3.71,8.33l0.02,0.73
		v3.2c0,2.22-1.68,4.04-3.84,4.25l-0.41,0.02h-18.96c0.44,1.71,1.9,3.01,3.69,3.18l0.42,0.02h19.1v8.54h-19.1
		c-6.81,0-12.39-5.4-12.72-12.17l-0.02-0.64v-6.41c0-6.85,5.37-12.46,12.1-12.79l0.64-0.02H315.69z M239.28,253.79
		c-4.09,0-7.43,3.35-7.43,7.47c0,4.12,3.34,7.47,7.43,7.47c4.09,0,7.43-3.35,7.43-7.47C246.72,257.15,243.38,253.79,239.28,253.79
		L239.28,253.79z M403.76,253.79c-4.09,0-7.43,3.35-7.43,7.47c0,4.12,3.34,7.47,7.43,7.47c4.09,0,7.43-3.35,7.43-7.47
		C411.19,257.15,407.85,253.79,403.76,253.79L403.76,253.79z M445.68,253.79c-4.09,0-7.43,3.35-7.43,7.47
		c0,4.12,3.34,7.47,7.43,7.47c4.09,0,7.43-3.35,7.43-7.47C453.1,257.15,449.77,253.79,445.68,253.79z M315.69,253.79h-6.37
		c-1.84,0-3.4,1.18-3.99,2.82l-0.12,0.39h14.59c-0.18-0.74-0.56-1.4-1.11-1.95C317.89,254.24,316.82,253.8,315.69,253.79
		L315.69,253.79z M480.16,232.44v8.54h-8.49v-8.54H480.16z"/>
</g>
</svg>
